<?xml version="1.0" standalone="no"?>
<!DOCTYPE svg PUBLIC "-//W3C//DTD SVG 20010904//EN"
 "http://www.w3.org/TR/2001/REC-SVG-20010904/DTD/svg10.dtd">
<svg version="1.0" xmlns="http://www.w3.org/2000/svg"
 width="600.000000pt" height="600.000000pt" viewBox="0 0 600.000000 600.000000"
 preserveAspectRatio="xMidYMid meet">
<metadata>
Created by potrace 1.11, written by Peter Selinger 2001-2013
</metadata>
<g transform="translate(0.000000,600.000000) scale(0.100000,-0.100000)"
fill="#000000" stroke="none">
<path d="M3350 5697 l-24 -72 -6 40 -5 40 -16 -40 c-9 -22 -150 -350 -313
-730 -164 -379 -303 -703 -310 -720 -47 -108 -81 -186 -97 -223 -11 -24 -27
-61 -35 -82 l-16 -39 -31 33 c-18 19 -73 78 -123 133 -51 54 -106 114 -124
133 -18 19 -73 79 -124 134 -50 54 -102 111 -116 125 -14 14 -76 81 -138 148
-67 73 -112 115 -112 105 -1 -20 1 -251 5 -795 2 -364 1 -398 -14 -392 -9 4
-117 44 -241 90 -124 45 -268 99 -320 118 -52 19 -189 70 -305 112 -116 42
-219 80 -230 85 -11 5 -114 43 -230 85 -116 43 -256 95 -313 116 -57 21 -105
39 -107 39 -19 0 6 -33 68 -92 39 -39 153 -147 252 -241 99 -95 225 -216 280
-269 55 -53 120 -116 145 -139 25 -23 128 -122 230 -219 102 -98 211 -202 243
-232 57 -55 66 -68 47 -68 -5 0 -58 -26 -117 -59 -59 -32 -142 -76 -183 -98
-41 -22 -95 -51 -120 -65 -54 -30 -198 -107 -258 -138 -23 -12 -44 -26 -47
-30 -3 -4 84 -38 193 -75 108 -37 290 -98 405 -137 l207 -70 -67 -42 c-66 -40
-357 -216 -398 -239 -11 -7 -39 -24 -62 -39 -23 -16 -44 -28 -46 -28 -2 0 -67
-38 -143 -84 -76 -47 -239 -144 -361 -217 -123 -73 -223 -137 -223 -141 0 -5
5 -6 10 -3 6 3 10 2 10 -3 0 -4 -15 -16 -32 -25 -32 -16 -23 -17 192 -12 124
3 279 7 345 10 66 2 219 7 341 10 122 3 268 8 325 10 473 17 538 17 537 -2 0
-10 2 -101 6 -203 4 -102 9 -225 11 -275 6 -148 18 -456 20 -510 2 -27 3 -70
4 -95 l1 -45 20 30 20 30 1 -42 c2 -57 3 -63 11 -65 6 -3 85 92 297 357 53 66
98 122 101 125 3 3 29 34 58 70 29 36 57 70 62 77 5 6 60 74 121 150 61 76
116 139 123 141 6 1 25 -10 41 -25 17 -16 86 -77 155 -138 69 -60 132 -116
141 -124 32 -31 138 -122 144 -124 3 -1 29 52 56 118 27 66 54 129 58 140 5
11 21 50 36 87 l27 66 47 -27 c25 -15 227 -137 448 -269 220 -133 408 -245
417 -248 13 -5 15 2 11 48 -3 29 -7 98 -10 153 -10 221 -18 330 -21 337 -15
24 38 9 208 -60 106 -44 324 -132 483 -196 160 -65 304 -124 320 -131 17 -7
91 -38 165 -68 74 -30 218 -95 320 -145 102 -49 187 -88 189 -86 2 2 -1 9 -7
17 -8 10 -6 13 9 13 10 0 19 -3 19 -7 0 -3 23 -16 51 -28 65 -27 73 -38 -107
155 -61 65 -135 146 -165 178 -30 32 -74 80 -99 105 -38 40 -127 135 -290 311
-18 19 -81 87 -140 150 -60 63 -121 129 -136 145 -71 78 -242 261 -263 282
-20 21 -21 27 -10 37 8 8 145 101 304 207 160 107 292 196 295 199 3 3 76 53
162 110 150 101 156 105 131 116 -20 9 -22 12 -9 17 25 10 19 22 -11 25 -15 1
-66 9 -113 17 -47 8 -146 23 -220 34 -189 29 -322 49 -355 55 -16 3 -80 13
-144 22 -64 9 -119 20 -123 23 -4 4 209 222 473 486 477 478 480 480 447 485
-33 6 -33 6 -10 19 13 7 21 15 19 18 -3 2 -65 -5 -139 -17 -73 -12 -146 -24
-163 -26 -29 -5 -118 -20 -160 -28 -11 -2 -42 -7 -68 -10 -27 -4 -59 -9 -70
-12 -12 -2 -35 -6 -52 -8 -70 -10 -111 -17 -135 -22 -13 -3 -38 -7 -55 -10
-16 -2 -40 -6 -52 -8 -11 -3 -43 -8 -70 -12 -26 -3 -57 -8 -68 -10 -11 -3 -36
-7 -55 -10 -19 -3 -69 -11 -111 -19 -42 -8 -98 -17 -125 -20 -27 -4 -67 -11
-89 -16 -22 -4 -48 -9 -59 -9 -23 0 -25 -11 44 250 23 85 43 162 45 170 3 13
94 356 147 550 11 41 22 83 24 93 2 9 6 25 9 35 2 9 11 43 19 76 l15 58 -25
-23 -25 -24 10 28 c6 15 7 27 3 27 -4 0 -194 -144 -422 -319 -228 -176 -416
-319 -417 -318 -2 3 -12 103 -18 182 -3 39 -7 93 -10 120 -2 28 -7 75 -10 105
-2 30 -7 87 -10 125 -3 39 -7 93 -10 120 -12 132 -15 166 -20 240 -3 44 -8 96
-10 115 -4 34 -10 102 -19 220 -9 103 -17 205 -21 250 -3 25 -7 77 -10 115 -7
91 -15 158 -18 162 -2 1 -14 -30 -27 -70z"/>
</g>
</svg>
